<?xml version="1.0" encoding="UTF-8" standalone="no"?>
<svg
   id="emoji"
   viewBox="0 0 72 72"
   version="1.1"
   sodipodi:docname="1FAF7.svg"
   inkscape:version="1.3.2 (091e20ef0f, 2023-11-25)"
   xmlns:inkscape="http://www.inkscape.org/namespaces/inkscape"
   xmlns:sodipodi="http://sodipodi.sourceforge.net/DTD/sodipodi-0.dtd"
   xmlns="http://www.w3.org/2000/svg"
   xmlns:svg="http://www.w3.org/2000/svg">
  <defs
     id="defs8" />
  <sodipodi:namedview
     id="namedview8"
     pagecolor="#505050"
     bordercolor="#eeeeee"
     borderopacity="1"
     inkscape:showpageshadow="0"
     inkscape:pageopacity="0"
     inkscape:pagecheckerboard="0"
     inkscape:deskcolor="#505050"
     inkscape:zoom="7.1527778"
     inkscape:cx="36"
     inkscape:cy="36"
     inkscape:window-width="1274"
     inkscape:window-height="1379"
     inkscape:window-x="1280"
     inkscape:window-y="55"
     inkscape:window-maximized="0"
     inkscape:current-layer="line" />
  <g
     id="grid">
    <path
       fill="#b3b3b3"
       d="m68,4v64H4V4h64M72,0H0v72h72V0Z"
       id="path1" />
    <rect
       x="11"
       y="10.96"
       rx="1.92"
       ry="1.92"
       width="50"
       height="50"
       fill="none"
       stroke="#00a5ff"
       stroke-miterlimit="10"
       stroke-width="0.1"
       id="rect1" />
    <rect
       x="16"
       y="4"
       rx="2.25"
       ry="2.25"
       width="40"
       height="64"
       fill="none"
       stroke="#00a5ff"
       stroke-miterlimit="10"
       stroke-width="0.1"
       id="rect2" />
    <rect
       x="4"
       y="16"
       rx="2.25"
       ry="2.25"
       width="64"
       height="40"
       fill="none"
       stroke="#00a5ff"
       stroke-miterlimit="10"
       stroke-width="0.1"
       id="rect3" />
    <circle
       cx="36"
       cy="36"
       r="29"
       fill="none"
       stroke="#00a5ff"
       stroke-miterlimit="10"
       stroke-width="0.1"
       id="circle3" />
  </g>
  <g
     id="color">
    <path
       fill="#92d3f5"
       d="m22.6059,66.6568c6.5766-2.8186,10.5132-10.3347,8.0799-18.4052l36.0775,3.3729v15.0323H26.3639s-3.7581,0-3.7581,0Z"
       id="path3" />
    <path
       fill="#61b2e4"
       d="m22.6059,66.6568q4.6976-2.8186,6.5766-5.6371l37.5807.9395v4.6976H26.3639s-3.7581,0-3.7581,0Z"
       id="path4" />
  </g>
  <g
     id="skin">
    <path
       fill="#fcea2b"
       d="m18.8478,59.1406c-.9395,0-5.6371-3.8238-5.6371-5.6371l-3.7581-15.9718,1.879-4.6976h2.6776s0-23.8732,0-23.8732c.2323-1.0679,1.134-1.8595,2.223-1.9516,1.3701-.1159,2.5748.9009,2.6907,2.271l2.5085,16.7422c.4322,2.7152,1.6442,2.7152,2.1139,5.4304.6765,5.2895,1.2871,14.5344,7.5161,18.2924,0,5.5432.9395,12.2137-6.5766,15.0323,0-.6107-4.8949-5.6371-5.6371-5.6371Z"
       id="path5" />
  </g>
  <g
     id="line">
    <path
       fill="none"
       stroke="#000000"
       stroke-linecap="round"
       stroke-linejoin="round"
       stroke-width="1.879"
       d="M 66.6631,66.6568 H 22.5057 c 6.5766,-2.8186 10.5132,-10.3347 8.0799,-18.4052 l 36.0775,3.3729"
       id="path6"
       sodipodi:nodetypes="cccc" />
    <g
       id="line-2">
      <path
         fill="none"
         stroke="#000"
         stroke-linecap="round"
         stroke-linejoin="round"
         stroke-width="1.879"
         d="m19.6872,46.9269c0-3.7581-3.7581-5.6371-3.7581-8.4557,0-4.6976-1.879-6.5766-4.6976-5.6371s-1.879,9.3952,0,13.1533c.8174,1.6348.9395,5.6371.9395,5.6371.1127,2.3488,3.7581,7.5161,6.5766,7.5161,1.879,0,5.6371,5.017,5.6371,5.6371"
         id="path7" />
    </g>
    <path
       fill="none"
       stroke="#000"
       stroke-linecap="round"
       stroke-linejoin="round"
       stroke-width="1.879"
       d="m30.8956,49.7455c-6.229-3.7581-6.8397-13.0123-7.488-18.3018-.4698-2.7152-1.6817-2.7152-2.1139-5.4304l-2.4709-16.7328c-.0921-1.089-.8837-1.9906-1.9516-2.223-1.3436-.2923-2.6698.5599-2.9621,1.9035v20.1621"
       id="path8" />
  </g>
</svg>
