<?xml version="1.0" encoding="UTF-8" standalone="no"?>
<svg
   id="emoji"
   viewBox="0 0 72 72"
   version="1.1"
   sodipodi:docname="1FAF8.svg"
   inkscape:version="1.3.2 (091e20ef0f, 2023-11-25)"
   xmlns:inkscape="http://www.inkscape.org/namespaces/inkscape"
   xmlns:sodipodi="http://sodipodi.sourceforge.net/DTD/sodipodi-0.dtd"
   xmlns="http://www.w3.org/2000/svg"
   xmlns:svg="http://www.w3.org/2000/svg">
  <defs
     id="defs8" />
  <sodipodi:namedview
     id="namedview8"
     pagecolor="#505050"
     bordercolor="#eeeeee"
     borderopacity="1"
     inkscape:showpageshadow="0"
     inkscape:pageopacity="0"
     inkscape:pagecheckerboard="0"
     inkscape:deskcolor="#505050"
     inkscape:zoom="16.069444"
     inkscape:cx="35.968885"
     inkscape:cy="36"
     inkscape:window-width="2554"
     inkscape:window-height="1379"
     inkscape:window-x="0"
     inkscape:window-y="55"
     inkscape:window-maximized="1"
     inkscape:current-layer="line" />
  <g
     id="grid">
    <path
       fill="#b3b3b3"
       d="m68,4v64H4V4h64M72,0H0v72h72V0Z"
       id="path1" />
    <rect
       x="11"
       y="10.96"
       rx="1.92"
       ry="1.92"
       width="50"
       height="50"
       fill="none"
       stroke="#00a5ff"
       stroke-miterlimit="10"
       stroke-width="0.1"
       id="rect1" />
    <rect
       x="16"
       y="4"
       rx="2.25"
       ry="2.25"
       width="40"
       height="64"
       fill="none"
       stroke="#00a5ff"
       stroke-miterlimit="10"
       stroke-width="0.1"
       id="rect2" />
    <rect
       x="4"
       y="16"
       rx="2.25"
       ry="2.25"
       width="64"
       height="40"
       fill="none"
       stroke="#00a5ff"
       stroke-miterlimit="10"
       stroke-width="0.1"
       id="rect3" />
    <circle
       cx="36"
       cy="36"
       r="29"
       fill="none"
       stroke="#00a5ff"
       stroke-miterlimit="10"
       stroke-width="0.1"
       id="circle3" />
  </g>
  <g
     id="color">
    <path
       fill="#92d3f5"
       d="m45.6019,66.6568H5.2026v-15.0323l36.0775-3.3729c-2.4334,8.0705,1.5032,15.5866,8.0799,18.4052h-3.7581Z"
       id="path3" />
    <path
       fill="#61b2e4"
       d="m45.6019,66.6568H5.2026v-4.6976l37.5807-.9395q1.879,2.8186,6.5766,5.6371h-3.7581Z"
       id="path4" />
  </g>
  <g
     id="skin">
    <path
       fill="#fcea2b"
       d="m47.481,64.7778c-7.5161-2.8186-6.5766-9.4891-6.5766-15.0323,6.229-3.7581,6.8397-13.0029,7.5161-18.2924.4698-2.7152,1.6817-2.7152,2.1139-5.4304l2.5085-16.7422c.1159-1.3701,1.3206-2.3869,2.6907-2.271,1.089.0921,1.9906.8837,2.223,1.9516v23.8732h2.6776l1.879,4.6976-3.7581,15.9718c0,1.8133-4.6976,5.6371-5.6371,5.6371-.7422,0-5.6371,5.0264-5.6371,5.6371Z"
       id="path5" />
  </g>
  <g
     id="line">
    <path
       fill="none"
       stroke="#000000"
       stroke-linecap="round"
       stroke-linejoin="round"
       stroke-width="1.879"
       d="m 5.2026,51.6245 36.0775,-3.3729 c -2.4334,8.0705 1.5032,15.5866 8.0799,18.4052 H 5.2026"
       id="path6"
       sodipodi:nodetypes="cccc" />
    <g
       id="line-2">
      <path
         fill="none"
         stroke="#000"
         stroke-linecap="round"
         stroke-linejoin="round"
         stroke-width="1.879"
         d="m47.481,64.7778c0-.6201,3.7581-5.6371,5.6371-5.6371,2.8186,0,6.4639-5.1674,6.5766-7.5161,0,0,.1221-4.0024.9395-5.6371,1.879-3.7581,2.8186-12.2137,0-13.1533s-4.6976.9395-4.6976,5.6371c0,2.8186-3.7581,4.6976-3.7581,8.4557"
         id="path7" />
    </g>
    <path
       fill="none"
       stroke="#000"
       stroke-linecap="round"
       stroke-linejoin="round"
       stroke-width="1.879"
       d="m57.9566,29.123V8.961c-.2923-1.3436-1.6185-2.1959-2.9621-1.9035-1.0679.2323-1.8595,1.134-1.9516,2.223l-2.4709,16.7328c-.4322,2.7152-1.6442,2.7152-2.1139,5.4304-.6483,5.2895-1.259,14.5437-7.488,18.3018"
       id="path8" />
  </g>
</svg>
