<?xml version="1.0" encoding="UTF-8" standalone="no"?>
<svg
   id="emoji"
   viewBox="0 0 72 72"
   version="1.1"
   sodipodi:docname="1F9B5.svg"
   inkscape:version="1.3.2 (091e20ef0f, 2023-11-25)"
   xmlns:inkscape="http://www.inkscape.org/namespaces/inkscape"
   xmlns:sodipodi="http://sodipodi.sourceforge.net/DTD/sodipodi-0.dtd"
   xmlns="http://www.w3.org/2000/svg"
   xmlns:svg="http://www.w3.org/2000/svg">
  <defs
     id="defs3" />
  <sodipodi:namedview
     id="namedview3"
     pagecolor="#505050"
     bordercolor="#eeeeee"
     borderopacity="1"
     inkscape:showpageshadow="0"
     inkscape:pageopacity="0"
     inkscape:pagecheckerboard="0"
     inkscape:deskcolor="#505050"
     showgrid="false"
     inkscape:zoom="16.152778"
     inkscape:cx="35.969046"
     inkscape:cy="36"
     inkscape:window-width="2560"
     inkscape:window-height="1385"
     inkscape:window-x="0"
     inkscape:window-y="55"
     inkscape:window-maximized="1"
     inkscape:current-layer="emoji" />
  <g
     id="grid">
    <path
       fill="#b3b3b3"
       d="M68,4V68H4V4H68m4-4H0V72H72V0Z"
       id="path1" />
    <path
       fill="none"
       stroke="#00a5ff"
       stroke-miterlimit="10"
       stroke-width="0.1"
       d="M12.923,10.9583H59.0769A1.9231,1.9231,0,0,1,61,12.8814V59.0352a1.9231,1.9231,0,0,1-1.9231,1.9231H12.9231A1.9231,1.9231,0,0,1,11,59.0352V12.8813A1.923,1.923,0,0,1,12.923,10.9583Z"
       id="path2" />
    <rect
       x="16"
       y="4"
       rx="2.2537"
       width="40"
       height="64"
       fill="none"
       stroke="#00a5ff"
       stroke-miterlimit="10"
       stroke-width="0.1"
       id="rect2" />
    <rect
       x="16"
       y="4"
       rx="2.2537"
       width="40"
       height="64"
       transform="translate(72) rotate(90)"
       fill="none"
       stroke="#00a5ff"
       stroke-miterlimit="10"
       stroke-width="0.1"
       id="rect3" />
    <circle
       cx="36"
       cy="36"
       r="29"
       fill="none"
       stroke="#00a5ff"
       stroke-miterlimit="10"
       stroke-width="0.1"
       id="circle3" />
  </g>
  <g
     id="color" />
  <g
     id="skin">
    <path
       id="Leg_Skin_1"
       fill="#fcea2b"
       d="M53.0691,8.9416c-3,7-12.5379,11.949-12.5,14.5.042,2.8237,1.2939,8.5391,1.5,11.5a121.39,121.39,0,0,1,0,20c-.1448,1.9947,4.6519,5.6706,0,9-1.2223.8748-6-2-14,0a24.1339,24.1339,0,0,1-7.5895.2906,1.8,1.8,0,0,1-.5166-3.41c2.2278-1.0376,5.1861-1.9593,7.1061-2.8809,2.9511-1.4165,4.7874-2.833,5.8248-4.6706a1.794,1.794,0,0,0,.2176-.6956c.8519-8.01-2.58-20.217-5.0424-25.6338a8.0774,8.0774,0,0,1-1-4c0-2,1-3,2-5,2.2429-4.4858,2.8473-7.1758,3.9283-9.4321a2.0073,2.0073,0,0,1,1.7218-1.0009A52.7188,52.7188,0,0,1,49.3745,8.19Z" />
    <path
       id="Leg_Skin_1-2"
       fill="#fcea2b"
       stroke="#fcea2b"
       stroke-linecap="round"
       stroke-linejoin="round"
       stroke-width="2"
       d="M53.0691,8.9416c-3,7-12.5379,11.949-12.5,14.5.042,2.8237,1.2939,8.5391,1.5,11.5a121.39,121.39,0,0,1,0,20c-.1448,1.9947,4.6519,5.6706,0,9-1.2223.8748-6-2-14,0a24.1339,24.1339,0,0,1-7.5895.2906,1.8,1.8,0,0,1-.5166-3.41c2.2278-1.0376,5.1861-1.9593,7.1061-2.8809,2.9511-1.4165,4.7874-2.833,5.8248-4.6706a1.794,1.794,0,0,0,.2176-.6956c.8519-8.01-2.58-20.217-5.0424-25.6338a8.0774,8.0774,0,0,1-1-4c0-2,1-3,2-5,2.2429-4.4858,2.8473-7.1758,3.9283-9.4321a2.0073,2.0073,0,0,1,1.7218-1.0009A52.7188,52.7188,0,0,1,49.3745,8.19Z" />
  </g>
  <g
     id="line">
    <path
       id="Leg_Line_1"
       fill="none"
       stroke="#000000"
       stroke-linecap="round"
       stroke-linejoin="round"
       stroke-width="2"
       d="m 53.0691,8.9416 c -3,7 -12.5379,11.949 -12.5,14.5 0.042,2.8237 1.2939,8.5391 1.5,11.5 0.550129,6.655318 0.550129,13.344682 0,20 -0.1448,1.9947 4.4567,6.3415 0,9 -1.6764,1 -6,-2 -14,0 -2.498639,0.49683 -5.060185,0.594911 -7.5895,0.2906 -1.769417,-0.25006 -2.132554,-2.647072 -0.5166,-3.41 2.2278,-1.0376 5.1861,-1.9593 7.1061,-2.8809 2.9511,-1.4165 4.7874,-2.833 5.8248,-4.6706 0.119365,-0.214535 0.193427,-0.451287 0.2176,-0.6956 0.8519,-8.01 -2.58,-20.217 -5.0424,-25.6338 -0.67375,-1.224375 -1.018309,-2.60261 -1,-4 0,-2 1,-3 2,-5 2.2429,-4.4858 3.106589,-7.886359 4.187589,-10.1426594"
       sodipodi:nodetypes="ccccsccccccccsc" />
    <path
       id="Leg_Line_2"
       fill="none"
       stroke="#000"
       stroke-linecap="round"
       stroke-linejoin="round"
       stroke-width="2"
       d="M33.0691,19.9416c-1.3706,1.69-1.78,3.669-1,5a2.9063,2.9063,0,0,0,1,1" />
  </g>
</svg>
